<?xml version="1.0" encoding="utf-8"?>
<!-- Generator: Adobe Illustrator 16.0.0, SVG Export Plug-In . SVG Version: 6.00 Build 0)  -->
<!DOCTYPE svg PUBLIC "-//W3C//DTD SVG 1.1//EN" "http://www.w3.org/Graphics/SVG/1.1/DTD/svg11.dtd">
<svg version="1.1" id="Layer_1" xmlns="http://www.w3.org/2000/svg" xmlns:xlink="http://www.w3.org/1999/xlink" x="0px" y="0px"
	 width="150px" height="150px" viewBox="0 0 150 150" enable-background="new 0 0 150 150" xml:space="preserve">
<path fill="none" stroke="#493C86" stroke-width="6" stroke-linecap="round" stroke-miterlimit="10" d="M51.896,108.009
	c-9.621-4.492-13.802-15.979-9.334-25.655"/>
<path fill="none" stroke="#493C86" stroke-width="6" stroke-miterlimit="10" d="M77.067,98.465
	c-4.466,9.676-15.888,13.878-25.51,9.386"/>
<polyline fill="none" stroke="#493C86" stroke-width="6" stroke-miterlimit="10" points="70.336,44.205 81.035,61.753 
	87.776,72.468 "/>
<line fill="none" stroke="#493C86" stroke-width="6" stroke-miterlimit="10" x1="102.223" y1="43.605" x2="77.067" y2="98.465"/>
<polyline fill="none" stroke="#F2C903" stroke-width="4" stroke-miterlimit="10" points="113.335,30.341 112.178,15.811 
	112.178,15.811 126.746,14.645 "/>
<polyline fill="none" stroke="#F2C903" stroke-width="4" stroke-miterlimit="10" points="120.039,20.011 121.198,34.542 
	121.198,34.542 106.63,35.709 "/>
<path fill="none" stroke="#493C86" stroke-width="6" stroke-linecap="round" stroke-miterlimit="10" d="M122.381,46.77
	c8.26,15.292,9.282,34.238,1.095,51.057c-13.431,27.591-46.56,39.008-73.994,25.499C22.048,109.817,10.696,76.5,24.129,48.911
	C37.56,21.32,70.688,9.903,98.121,23.412"/>
<path fill="none" stroke="#FF00FF" stroke-width="8" stroke-miterlimit="10" d="M105.045,11.758"/>
</svg>
